<?xml version="1.0" encoding="UTF-8" standalone="no"?>
<!-- Created with Inkscape (http://www.inkscape.org/) -->

<svg
   xmlns:dc="http://purl.org/dc/elements/1.1/"
   xmlns:cc="http://creativecommons.org/ns#"
   xmlns:rdf="http://www.w3.org/1999/02/22-rdf-syntax-ns#"
   xmlns:svg="http://www.w3.org/2000/svg"
   xmlns="http://www.w3.org/2000/svg"
   xmlns:sodipodi="http://sodipodi.sourceforge.net/DTD/sodipodi-0.dtd"
   xmlns:inkscape="http://www.inkscape.org/namespaces/inkscape"
   id="svg2"
   version="1.1"
   inkscape:version="0.91 r13725"
   xml:space="preserve"
   width="590"
   height="481.25"
   viewBox="0 0 590 481.25"
   sodipodi:docname="mach-zehnder-xi.svg"><metadata
     id="metadata8"><rdf:RDF><cc:Work
         rdf:about=""><dc:format>image/svg+xml</dc:format><dc:type
           rdf:resource="http://purl.org/dc/dcmitype/StillImage" /><dc:title></dc:title></cc:Work></rdf:RDF></metadata><defs
     id="defs6" /><sodipodi:namedview
     pagecolor="#ffffff"
     bordercolor="#666666"
     borderopacity="1"
     objecttolerance="10"
     gridtolerance="10"
     guidetolerance="10"
     inkscape:pageopacity="0"
     inkscape:pageshadow="2"
     inkscape:window-width="1366"
     inkscape:window-height="732"
     id="namedview4"
     showgrid="false"
     inkscape:zoom="1.0454042"
     inkscape:cx="301.80085"
     inkscape:cy="236.54661"
     inkscape:window-x="0"
     inkscape:window-y="0"
     inkscape:window-maximized="1"
     inkscape:current-layer="g12" /><g
     id="g10"
     inkscape:groupmode="layer"
     inkscape:label="ink_ext_XXXXXX"
     transform="matrix(1.25,0,0,-1.25,0,481.25)"><g
       id="g12"
       transform="scale(0.1,0.1)"><path
         d="m 830.66,317.27 22.8086,0 0,2285.7 -22.8086,0 0,-2285.7 z"
         style="fill:#000000;fill-opacity:1;fill-rule:nonzero;stroke:none"
         id="path14"
         inkscape:connector-curvature="0" /><path
         d="m 830.66,317.27 22.8086,0 0,2285.7 -22.8086,0 0,-2285.7 z"
         style="fill:none;stroke:#000000;stroke-width:8.03421974;stroke-linecap:butt;stroke-linejoin:miter;stroke-miterlimit:4;stroke-dasharray:none;stroke-opacity:1"
         id="path16"
         inkscape:connector-curvature="0" /><path
         d="m 3093.52,297.379 -0.08,22.891 -2262.819,-5.969 0.039,-22.891 2262.86,5.969 z"
         style="fill:#000000;fill-opacity:1;fill-rule:nonzero;stroke:none"
         id="path18"
         inkscape:connector-curvature="0" /><path
         d="m 3093.52,297.379 -0.08,22.891 -2262.819,-5.969 0.039,-22.891 2262.86,5.969 z"
         style="fill:none;stroke:#000000;stroke-width:8;stroke-linecap:butt;stroke-linejoin:miter;stroke-miterlimit:4;stroke-dasharray:none;stroke-opacity:1"
         id="path20"
         inkscape:connector-curvature="0" /><path
         d="m 3093.52,2594.53 -0.08,22.85 -2262.819,-5.97 0.039,-22.86 2262.86,5.98 z"
         style="fill:#000000;fill-opacity:1;fill-rule:nonzero;stroke:none"
         id="path22"
         inkscape:connector-curvature="0" /><path
         d="m 3093.52,2594.53 -0.08,22.85 -2262.819,-5.97 0.039,-22.86 2262.86,5.98 z"
         style="fill:none;stroke:#000000;stroke-width:8;stroke-linecap:butt;stroke-linejoin:miter;stroke-miterlimit:4;stroke-dasharray:none;stroke-opacity:1"
         id="path24"
         inkscape:connector-curvature="0" /><path
         d="m 3082.11,305.859 22.7695,0 0,2300.7 -22.7695,0 0,-2300.7 z"
         style="fill:#000000;fill-opacity:1;fill-rule:nonzero;stroke:none"
         id="path26"
         inkscape:connector-curvature="0" /><path
         d="m 3082.11,305.82 22.7695,0 0,2298.24 -22.7695,0 0,-2298.24 z"
         style="fill:none;stroke:#000000;stroke-width:8.05294037;stroke-linecap:butt;stroke-linejoin:miter;stroke-miterlimit:4;stroke-dasharray:none;stroke-opacity:1"
         id="path28"
         inkscape:connector-curvature="0" /><path
         d="m 832.148,290.82 -0.039,25.2 L 6.28906,309.41 6.32813,284.219 832.148,290.82 Z"
         style="fill:#000000;fill-opacity:1;fill-rule:nonzero;stroke:none"
         id="path30"
         inkscape:connector-curvature="0" /><g
         id="g32"
         transform="matrix(-8.70652e-4,0.995612,-0.995582,-0.0079354,0,0)"><path
           d="m 285.434,-836.095 25.315,0.021 -0.024,829.48922 -25.31,-0.02103 0.019,-829.48919 z"
           style="fill:none;stroke:#000000;stroke-width:5.09531021;stroke-linecap:butt;stroke-linejoin:miter;stroke-miterlimit:4;stroke-dasharray:none;stroke-opacity:1"
           id="path34"
           inkscape:connector-curvature="0" /></g><path
         d="m 3912.15,2599.38 -0.04,25.19 -825.82,-6.56 0,-25.2 825.86,6.57 z"
         style="fill:#000000;fill-opacity:1;fill-rule:nonzero;stroke:none"
         id="path36"
         inkscape:connector-curvature="0" /><g
         id="g38"
         transform="matrix(-8.70652e-4,0.995612,-0.995582,-0.0079354,0,0)"><path
           d="m 2579.49,-3931.77 25.31,0.02 0.02,829.49 -25.31,0.02 -0.02,-829.53 z"
           style="fill:none;stroke:#000000;stroke-width:5.09531021;stroke-linecap:butt;stroke-linejoin:miter;stroke-miterlimit:4;stroke-dasharray:none;stroke-opacity:1"
           id="path40"
           inkscape:connector-curvature="0" /></g><path
         d="m 1088.32,2907.38 18.24,-18.24 -567.849,-567.69 -18.242,18.24 567.851,567.69 z"
         style="fill:#000000;fill-opacity:1;fill-rule:nonzero;stroke:none"
         id="path42"
         inkscape:connector-curvature="0" /><path
         d="m 1088.32,2907.38 18.24,-18.24 -567.849,-567.69 -18.242,18.24 567.851,567.69 z"
         style="fill:none;stroke:#000000;stroke-width:5.06239986;stroke-linecap:butt;stroke-linejoin:miter;stroke-miterlimit:4;stroke-dasharray:none;stroke-opacity:1"
         id="path44"
         inkscape:connector-curvature="0" /><path
         d="M 3396.88,593.09 3415.12,574.84 2847.27,7.14844 2829.02,25.3906 3396.88,593.09 Z"
         style="fill:#000000;fill-opacity:1;fill-rule:nonzero;stroke:none"
         id="path46"
         inkscape:connector-curvature="0" /><path
         d="M 3396.88,593.09 3415.12,574.84 2847.27,7.14844 2829.02,25.3906 3396.88,593.09 Z"
         style="fill:none;stroke:#000000;stroke-width:5.06239986;stroke-linecap:butt;stroke-linejoin:miter;stroke-miterlimit:4;stroke-dasharray:none;stroke-opacity:1"
         id="path48"
         inkscape:connector-curvature="0" /><path
         d="M 1134.02,610.23 1152.27,591.988 584.41,24.3008 566.172,42.5391 1134.02,610.23 Z"
         style="fill:#000000;fill-opacity:1;fill-rule:nonzero;stroke:none"
         id="path50"
         inkscape:connector-curvature="0" /><path
         d="M 1134.02,610.23 1152.27,591.988 584.41,24.3008 566.172,42.5391 1134.02,610.23 Z"
         style="fill:none;stroke:#000000;stroke-width:5.06239986;stroke-linecap:butt;stroke-linejoin:miter;stroke-miterlimit:4;stroke-dasharray:none;stroke-opacity:1"
         id="path52"
         inkscape:connector-curvature="0" /><path
         d="m 3362.58,2901.64 18.24,-18.24 -567.85,-567.66 -18.24,18.24 567.85,567.66 z"
         style="fill:#000000;fill-opacity:1;fill-rule:nonzero;stroke:none"
         id="path54"
         inkscape:connector-curvature="0" /><path
         d="m 3362.58,2901.64 18.24,-18.24 -567.85,-567.66 -18.24,18.24 567.85,567.66 z"
         style="fill:none;stroke:#000000;stroke-width:5.06239986;stroke-linecap:butt;stroke-linejoin:miter;stroke-miterlimit:4;stroke-dasharray:none;stroke-opacity:1"
         id="path56"
         inkscape:connector-curvature="0" /><path
         d="m 704.449,2680.2 -0.07,18.75 179.68,1.36 0.082,-18.79 -179.692,-1.32 z"
         style="fill:#000000;fill-opacity:1;fill-rule:nonzero;stroke:none"
         id="path58"
         inkscape:connector-curvature="0" /><g
         id="g60"
         transform="matrix(-0.00334109,0.994579,0.994556,0.00752445,0,0)"><path
           d="m 2689.38,717.344 18.85,-0.019 0,180.671 -18.89,0.019 0.04,-180.671 z"
           style="fill:none;stroke:#000000;stroke-width:2.05430007;stroke-linecap:butt;stroke-linejoin:miter;stroke-miterlimit:4;stroke-dasharray:none;stroke-opacity:1"
           id="path62"
           inkscape:connector-curvature="0" /></g><path
         d="m 898.398,2866.05 -0.078,18.75 179.69,1.37 0.08,-18.75 -179.692,-1.37 z"
         style="fill:#000000;fill-opacity:1;fill-rule:nonzero;stroke:none"
         id="path64"
         inkscape:connector-curvature="0" /><g
         id="g66"
         transform="matrix(-0.00334109,0.994579,0.994556,0.00752445,0,0)"><path
           d="m 2874.77,912.978 18.85,-0.023 0.01,180.675 -18.85,0.01 -0.01,-180.662 z"
           style="fill:none;stroke:#000000;stroke-width:2.05430007;stroke-linecap:butt;stroke-linejoin:miter;stroke-miterlimit:4;stroke-dasharray:none;stroke-opacity:1"
           id="path68"
           inkscape:connector-curvature="0" /></g><path
         d="m 797.379,2769.06 -0.078,18.79 179.687,1.37 0.082,-18.79 -179.691,-1.37 z"
         style="fill:#000000;fill-opacity:1;fill-rule:nonzero;stroke:none"
         id="path70"
         inkscape:connector-curvature="0" /><g
         id="g72"
         transform="matrix(-0.00334109,0.994579,0.994556,0.00752445,0,0)"><path
           d="m 2778.02,811.084 18.9,-0.019 0,180.667 -18.89,0.023 -0.01,-180.671 z"
           style="fill:none;stroke:#000000;stroke-width:2.05430007;stroke-linecap:butt;stroke-linejoin:miter;stroke-miterlimit:4;stroke-dasharray:none;stroke-opacity:1"
           id="path74"
           inkscape:connector-curvature="0" /></g><path
         d="m 611.48,2591.29 -0.031,18.75 179.68,1.37 0.082,-18.75 -179.731,-1.37 z"
         style="fill:#000000;fill-opacity:1;fill-rule:nonzero;stroke:none"
         id="path76"
         inkscape:connector-curvature="0" /><g
         id="g78"
         transform="matrix(-0.00334109,0.994579,0.994556,0.00752445,0,0)"><path
           d="m 2600.7,623.568 18.84,0.02 0.01,180.679 -18.85,0.012 0,-180.711 z"
           style="fill:none;stroke:#000000;stroke-width:2.05430007;stroke-linecap:butt;stroke-linejoin:miter;stroke-miterlimit:4;stroke-dasharray:none;stroke-opacity:1"
           id="path80"
           inkscape:connector-curvature="0" /></g><path
         d="m 538.789,2502.38 -0.078,18.79 179.687,1.37 0.082,-18.79 -179.691,-1.37 z"
         style="fill:#000000;fill-opacity:1;fill-rule:nonzero;stroke:none"
         id="path82"
         inkscape:connector-curvature="0" /><g
         id="g84"
         transform="matrix(-0.00334109,0.994579,0.994556,0.00752445,0,0)"><path
           d="m 2511.86,550.181 18.89,-0.023 0.01,180.671 -18.89,0.019 -0.01,-180.667 z"
           style="fill:none;stroke:#000000;stroke-width:2.05430007;stroke-linecap:butt;stroke-linejoin:miter;stroke-miterlimit:4;stroke-dasharray:none;stroke-opacity:1"
           id="path86"
           inkscape:connector-curvature="0" /></g><path
         d="m 449.879,2417.54 -0.078,18.79 179.687,1.33 0.082,-18.75 -179.691,-1.37 z"
         style="fill:#000000;fill-opacity:1;fill-rule:nonzero;stroke:none"
         id="path88"
         inkscape:connector-curvature="0" /><g
         id="g90"
         transform="matrix(-0.00334109,0.994579,0.994556,0.00752445,0,0)"><path
           d="m 2427.23,460.503 18.89,-0.019 -0.03,180.667 -18.85,0.024 -0.01,-180.672 z"
           style="fill:none;stroke:#000000;stroke-width:2.05430007;stroke-linecap:butt;stroke-linejoin:miter;stroke-miterlimit:4;stroke-dasharray:none;stroke-opacity:1"
           id="path92"
           inkscape:connector-curvature="0" /></g><path
         d="m 2882.34,37.6211 -0.07,18.7891 179.68,1.3203 0.08,-18.75 -179.69,-1.3594 z"
         style="fill:#000000;fill-opacity:1;fill-rule:nonzero;stroke:none"
         id="path94"
         inkscape:connector-curvature="0" /><g
         id="g96"
         transform="matrix(-0.00334109,0.994579,0.994556,0.00752445,0,0)"><path
           d="m 15.9001,2898.18 18.8916,-0.02 -0.0314,180.67 -18.8524,0.02 -0.0078,-180.67 z"
           style="fill:none;stroke:#000000;stroke-width:2.05430007;stroke-linecap:butt;stroke-linejoin:miter;stroke-miterlimit:4;stroke-dasharray:none;stroke-opacity:1"
           id="path98"
           inkscape:connector-curvature="0" /></g><path
         d="m 3052.03,219.449 -0.08,18.75 179.69,1.371 0.08,-18.75 -179.69,-1.371 z"
         style="fill:#000000;fill-opacity:1;fill-rule:nonzero;stroke:none"
         id="path100"
         inkscape:connector-curvature="0" /><g
         id="g102"
         transform="matrix(-0.00334109,0.994579,0.994556,0.00752445,0,0)"><path
           d="m 197.432,3069.4 18.852,-0.01 0,180.67 -18.852,0.02 0,-180.68 z"
           style="fill:none;stroke:#000000;stroke-width:2.05430007;stroke-linecap:butt;stroke-linejoin:miter;stroke-miterlimit:4;stroke-dasharray:none;stroke-opacity:1"
           id="path104"
           inkscape:connector-curvature="0" /></g><path
         d="m 3140.94,308.32 -0.08,18.789 179.69,1.371 0.07,-18.789 -179.68,-1.371 z"
         style="fill:#000000;fill-opacity:1;fill-rule:nonzero;stroke:none"
         id="path106"
         inkscape:connector-curvature="0" /><g
         id="g108"
         transform="matrix(-0.00334109,0.994579,0.994556,0.00752445,0,0)"><path
           d="m 286.105,3159.09 18.891,-0.02 0,180.68 -18.883,0.01 -0.008,-180.67 z"
           style="fill:none;stroke:#000000;stroke-width:2.05430007;stroke-linecap:butt;stroke-linejoin:miter;stroke-miterlimit:4;stroke-dasharray:none;stroke-opacity:1"
           id="path110"
           inkscape:connector-curvature="0" /></g><path
         d="m 3221.72,389.141 -0.04,18.789 179.69,1.371 0.08,-18.789 -179.73,-1.371 z"
         style="fill:#000000;fill-opacity:1;fill-rule:nonzero;stroke:none"
         id="path112"
         inkscape:connector-curvature="0" /><g
         id="g114"
         transform="matrix(-0.00334109,0.994579,0.994556,0.00752445,0,0)"><path
           d="m 366.749,3240.59 18.884,0.02 0.011,180.68 -18.895,0.01 0,-180.71 z"
           style="fill:none;stroke:#000000;stroke-width:2.05430007;stroke-linecap:butt;stroke-linejoin:miter;stroke-miterlimit:4;stroke-dasharray:none;stroke-opacity:1"
           id="path116"
           inkscape:connector-curvature="0" /></g><path
         d="m 3298.52,478.051 -0.08,18.789 179.68,1.32 0.08,-18.75 -179.68,-1.359 z"
         style="fill:#000000;fill-opacity:1;fill-rule:nonzero;stroke:none"
         id="path118"
         inkscape:connector-curvature="0" /><g
         id="g120"
         transform="matrix(-0.00334109,0.994579,0.994556,0.00752445,0,0)"><path
           d="m 455.554,3318.11 18.891,-0.02 -0.031,180.66 -18.853,0.02 -0.007,-180.66 z"
           style="fill:none;stroke:#000000;stroke-width:2.05430007;stroke-linecap:butt;stroke-linejoin:miter;stroke-miterlimit:4;stroke-dasharray:none;stroke-opacity:1"
           id="path122"
           inkscape:connector-curvature="0" /></g><path
         d="m 2963.12,130.551 -0.03,18.789 179.68,1.359 0.04,-18.789 -179.69,-1.359 z"
         style="fill:#000000;fill-opacity:1;fill-rule:nonzero;stroke:none"
         id="path124"
         inkscape:connector-curvature="0" /><g
         id="g126"
         transform="matrix(-0.00334109,0.994579,0.994556,0.00752445,0,0)"><path
           d="m 108.712,2979.71 18.891,0.02 0.012,180.68 -18.892,-0.03 -0.011,-180.67 z"
           style="fill:none;stroke:#000000;stroke-width:2.05430007;stroke-linecap:butt;stroke-linejoin:miter;stroke-miterlimit:4;stroke-dasharray:none;stroke-opacity:1"
           id="path128"
           inkscape:connector-curvature="0" /></g><path
         d="m 3910.43,3038.75 c 157.38,-0.94 302.27,-85.74 380.12,-222.46 77.85,-136.76 76.87,-304.65 -2.62,-440.43 -79.49,-135.78 -225.39,-218.87 -382.73,-217.93 l 2.61,440.39 2.62,440.43 z"
         style="fill:none;stroke:#000000;stroke-width:8;stroke-linecap:butt;stroke-linejoin:miter;stroke-miterlimit:4;stroke-dasharray:none;stroke-opacity:1"
         id="path130"
         inkscape:connector-curvature="0" /><path
         d="m 293.012,334.488 57.929,-33.437 -57.972,-35.313 -57.93,-35.347 0,68.789 0.039,68.789 57.934,-33.481 z"
         style="fill:#000000;fill-opacity:1;fill-rule:nonzero;stroke:none"
         id="path132"
         inkscape:connector-curvature="0" /><g
         id="g134"
         transform="matrix(0.110673,0.908332,0.881548,-0.0994469,0,0)"><path
           d="m 399.152,282.268 -29.216,69.377 -45.446,-60.044 -45.489,-60.011 74.696,-9.378 74.718,-9.327 -29.263,69.383 z"
           style="fill:none;stroke:#000000;stroke-width:3.70762992;stroke-linecap:butt;stroke-linejoin:miter;stroke-miterlimit:4;stroke-dasharray:none;stroke-opacity:1"
           id="path136"
           inkscape:connector-curvature="0" /></g><path
         d="m 2800.78,1235.59 594.02,0 0,492.301 -594.02,0 0,-492.301 z"
         style="fill:#ffffff;fill-opacity:1;fill-rule:nonzero;stroke:none"
         id="path138"
         inkscape:connector-curvature="0" /><path
         d="m 2800.78,1235.59 594.02,0 0,492.301 -594.02,0 0,-492.301 z"
         style="fill:none;stroke:#000000;stroke-width:8;stroke-linecap:butt;stroke-linejoin:miter;stroke-miterlimit:4;stroke-dasharray:none;stroke-opacity:1"
         id="path140"
         inkscape:connector-curvature="0" /><g
         id="g142"
         transform="scale(10,10)"><text
           transform="matrix(1,0,0,-0.91376774,300.93,139.532)"
           style="font-variant:normal;font-size:36.82018661px;font-family:'Latin Modern Math';-inkscape-font-specification:'Latin Modern Math';writing-mode:lr-tb;fill:#000000;fill-opacity:1;fill-rule:nonzero;stroke:none;font-weight:normal;font-style:normal;font-stretch:normal;"
           id="text144"><tspan
             x="0"
             y="0"
             id="tspan146"
             style="-inkscape-font-specification:'Latin Modern Math';font-family:'Latin Modern Math';font-weight:normal;font-style:normal;font-stretch:normal;font-variant:normal;">ξ</tspan></text>
<text
           transform="matrix(1,0,0,-0.9652696,300.95,351.916)"
           style="font-variant:normal;font-size:24.77805138px;font-family:'Latin Modern Math';-inkscape-font-specification:'Latin Modern Math';writing-mode:lr-tb;fill:#000000;fill-opacity:1;fill-rule:nonzero;stroke:none;font-weight:normal;font-style:normal;font-stretch:normal;"
           id="text148"><tspan
             x="0"
             y="0"
             id="tspan150"
             style="-inkscape-font-specification:'Latin Modern Math';font-family:'Latin Modern Math';font-weight:normal;font-style:normal;font-stretch:normal;font-variant:normal;">D</tspan></text>
<text
           transform="matrix(1,0,0,-0.91759114,319.311,347.777)"
           style="font-variant:normal;font-size:14.11151409px;font-family:'Latin Modern Math';-inkscape-font-specification:'Latin Modern Math';writing-mode:lr-tb;fill:#000000;fill-opacity:1;fill-rule:nonzero;stroke:none;font-weight:normal;font-style:normal;font-stretch:normal;"
           id="text152"><tspan
             x="0"
             y="0"
             id="tspan154"
             style="-inkscape-font-specification:'Latin Modern Math';font-family:'Latin Modern Math';font-weight:normal;font-style:normal;font-stretch:normal;font-variant:normal;">1</tspan></text>
</g><path
         d="m 3080.47,2603.32 25.19,0.12 -9.88,794.18 -25.16,-0.12 9.85,-794.18 z"
         style="fill:#000000;fill-opacity:1;fill-rule:nonzero;stroke:none"
         id="path156"
         inkscape:connector-curvature="0" /><g
         id="g158"
         transform="matrix(1.01251,0.00474094,-0.0121299,0.97062,0,0)"><path
           d="m 3073.15,2665.75 24.92,0.04 0.04,817.8 -24.96,0.01 0,-817.85 z"
           style="fill:none;stroke:#000000;stroke-width:5.02357006;stroke-linecap:butt;stroke-linejoin:miter;stroke-miterlimit:4;stroke-dasharray:none;stroke-opacity:1"
           id="path160"
           inkscape:connector-curvature="0" /></g><path
         d="m 2656.99,3400.2 c 0.2,157.38 84.3,302.65 220.67,381.17 136.36,78.47 304.25,78.28 440.43,-0.59 136.17,-78.83 219.92,-224.33 219.72,-381.68 l -440.43,0.55 -440.39,0.55 z"
         style="fill:none;stroke:#000000;stroke-width:8;stroke-linecap:butt;stroke-linejoin:miter;stroke-miterlimit:4;stroke-dasharray:none;stroke-opacity:1"
         id="path162"
         inkscape:connector-curvature="0" /><path
         d="m 4656.13,963.121 57.93,-33.473 -57.97,-35.269 -57.93,-35.399 0,68.79 0.04,68.789 57.93,-33.438 z"
         style="fill:#000000;fill-opacity:1;fill-rule:nonzero;stroke:none"
         id="path164"
         inkscape:connector-curvature="0" /><g
         id="g166"
         transform="matrix(0.110673,0.908332,0.881548,-0.0994469,0,0)"><path
           d="m 1616.33,5078.85 -29.22,69.38 -45.45,-60.06 -45.48,-60 74.69,-9.38 74.71,-9.33 -29.25,69.39 z"
           style="fill:none;stroke:#000000;stroke-width:3.70762992;stroke-linecap:butt;stroke-linejoin:miter;stroke-miterlimit:4;stroke-dasharray:none;stroke-opacity:1"
           id="path168"
           inkscape:connector-curvature="0" /></g><g
         id="g170"
         transform="matrix(-8.70652e-4,0.995612,-0.995582,-0.0079354,0,0)"><path
           d="m 878.981,-4646.09 25.271,0.01 0.02,829.49 -25.271,0.02 -0.02,-829.52 z"
           style="fill:none;stroke:#000000;stroke-width:5.09531021;stroke-linecap:butt;stroke-linejoin:miter;stroke-miterlimit:4;stroke-dasharray:none;stroke-opacity:1"
           id="path172"
           inkscape:connector-curvature="0" /></g><path
         d="m 4623.16,911.289 -0.04,25.191 -825.82,-6.558 0,-25.192 825.86,6.559 z"
         style="fill:#000000;fill-opacity:1;fill-rule:nonzero;stroke:none"
         id="path174"
         inkscape:connector-curvature="0" /><g
         id="g176"
         transform="scale(10,10)"><text
           transform="matrix(1,0,0,-1,413.421,105.532)"
           style="font-variant:normal;font-size:20px;font-family:'Latin Modern Math';-inkscape-font-specification:'Latin Modern Math';writing-mode:lr-tb;fill:#000000;fill-opacity:1;fill-rule:nonzero;stroke:none;font-weight:normal;font-style:normal;font-stretch:normal;"
           id="text178"><tspan
             x="0"
             y="0"
             id="tspan180"
             style="-inkscape-font-specification:'Latin Modern Math';font-family:'Latin Modern Math';font-weight:normal;font-style:normal;font-stretch:normal;font-variant:normal;">Λ</tspan></text>
<text
           transform="matrix(1,0,0,-1,115.509,70.4797)"
           style="font-variant:normal;font-size:20px;font-family:'Latin Modern Math';-inkscape-font-specification:'Latin Modern Math';writing-mode:lr-tb;fill:#000000;fill-opacity:1;fill-rule:nonzero;stroke:none;font-weight:normal;font-style:normal;font-stretch:normal;"
           id="text182"><tspan
             x="0 14.16"
             y="0"
             sodipodi:role="line"
             id="tspan184">BS</tspan></text>
<text
           transform="matrix(1,0,0,-1,141.2153,66.24259)"
           style="font-variant:normal;font-size:12px;font-family:'Latin Modern Math';-inkscape-font-specification:'Latin Modern Math';writing-mode:lr-tb;fill:#000000;fill-opacity:1;fill-rule:nonzero;stroke:none;font-weight:normal;font-style:normal;font-stretch:normal;"
           id="text186"><tspan
             x="0"
             y="0"
             id="tspan188"
             style="-inkscape-font-specification:'Latin Modern Math';font-family:'Latin Modern Math';font-weight:normal;font-style:normal;font-stretch:normal;font-variant:normal;">1</tspan></text>
<text
           transform="matrix(1,0,0,-1,243.2713,213.36359)"
           style="font-variant:normal;font-size:20px;font-family:'Latin Modern Math';-inkscape-font-specification:'Latin Modern Math';writing-mode:lr-tb;fill:#000000;fill-opacity:1;fill-rule:nonzero;stroke:none;font-weight:normal;font-style:normal;font-stretch:normal;"
           id="text190"><tspan
             x="0 14.16"
             y="0"
             sodipodi:role="line"
             id="tspan192">BS</tspan></text>
<text
           transform="matrix(1,0,0,-1,269.6475,208.89445)"
           style="font-variant:normal;font-size:12px;font-family:'Latin Modern Math';-inkscape-font-specification:'Latin Modern Math';writing-mode:lr-tb;fill:#000000;fill-opacity:1;fill-rule:nonzero;stroke:none;font-weight:normal;font-style:normal;font-stretch:normal;"
           id="text194"><tspan
             x="0"
             y="0"
             id="tspan196"
             style="-inkscape-font-specification:'Latin Modern Math';font-family:'Latin Modern Math';font-weight:normal;font-style:normal;font-stretch:normal;font-variant:normal;">2</tspan></text>
<text
           transform="matrix(1,0,0,-1,417.5735,249.19525)"
           style="font-variant:normal;font-size:14px;font-family:'Latin Modern Math';-inkscape-font-specification:'Latin Modern Math';writing-mode:lr-tb;fill:#000000;fill-opacity:1;fill-rule:nonzero;stroke:none;font-weight:normal;font-style:normal;font-stretch:normal;"
           id="text198"><tspan
             x="0"
             y="0"
             id="tspan200"
             style="-inkscape-font-specification:'Latin Modern Math';font-family:'Latin Modern Math';font-weight:normal;font-style:normal;font-stretch:normal;font-variant:normal;">0</tspan></text>
<text
           transform="matrix(1,0,0,-0.9652696,399.458,255.13)"
           style="font-variant:normal;font-size:24.77805138px;font-family:'Latin Modern Math';-inkscape-font-specification:'Latin Modern Math';writing-mode:lr-tb;fill:#000000;fill-opacity:1;fill-rule:nonzero;stroke:none;font-weight:normal;font-style:normal;font-stretch:normal;"
           id="text202"><tspan
             x="0"
             y="0"
             id="tspan204"
             style="-inkscape-font-specification:'Latin Modern Math';font-family:'Latin Modern Math';font-weight:normal;font-style:normal;font-stretch:normal;font-variant:normal;">D</tspan></text>
</g></g></g></svg>